<?xml version="1.0" encoding="UTF-8"?>
<svg version="1.1" xmlns="http://www.w3.org/2000/svg" width="256" height="256">
<path d="M0 0 C1.27040697 0.00529095 1.27040697 0.00529095 2.56647873 0.01068878 C5.38169585 0.02575572 8.19621444 0.06225909 11.01123047 0.09863281 C13.03898095 0.11366864 15.06674308 0.12719854 17.09451294 0.13934326 C21.46580932 0.16735675 25.83693968 0.20356272 30.20812988 0.24487305 C37.25674147 0.30786377 44.30514651 0.32892146 51.35400391 0.34277344 C62.46528009 0.36607359 73.57614556 0.4149864 84.68722153 0.48571014 C91.0491453 0.52568403 97.41091338 0.55770043 103.77294922 0.57275391 C110.07014833 0.58788493 116.36697299 0.62216846 122.66400528 0.67006683 C125.02978407 0.68480736 127.39561571 0.69279458 129.76144028 0.69364166 C133.033759 0.69600516 136.30501353 0.72300022 139.57714844 0.75585938 C140.53275162 0.75082901 141.4883548 0.74579865 142.47291565 0.74061584 C149.64615221 0.85208432 155.00490881 2.51042287 160.40576172 7.33691406 C160.95361328 8.0059375 161.50146484 8.67496094 162.06591797 9.36425781 C162.63181641 10.03585938 163.19771484 10.70746094 163.78076172 11.39941406 C165.94174309 14.44984284 166.25561018 17.04344362 166.27558899 20.67082214 C166.28632195 22.01013794 166.28632195 22.01013794 166.29727173 23.37651062 C166.29996063 24.35368546 166.30264954 25.33086029 166.30541992 26.33764648 C166.31199112 27.36886627 166.31856232 28.40008606 166.32533264 29.46255493 C166.34507278 32.88161286 166.35673048 36.30062683 166.36669922 39.71972656 C166.37077475 40.88747431 166.37485027 42.05522205 166.3790493 43.25835609 C166.39991405 49.44022063 166.4142135 55.62206294 166.42358398 61.80395508 C166.43464335 68.18510771 166.4690371 74.56591115 166.50875568 80.94694042 C166.53491929 85.85666038 166.54327567 90.76629716 166.54686546 95.6760807 C166.5517328 98.0279609 166.5633509 100.37983734 166.58190346 102.7316494 C166.60628631 106.02767855 166.60533087 109.3228045 166.59838867 112.61889648 C166.61760376 114.06947701 166.61760376 114.06947701 166.63720703 115.54936218 C166.58314615 122.61059933 165.16160308 128.23364158 160.09326172 133.36035156 C159.08972656 134.04291016 159.08972656 134.04291016 158.06591797 134.73925781 C157.39431641 135.21234375 156.72271484 135.68542969 156.03076172 136.17285156 C149.44550203 140.08073668 145.11657464 138.30175781 136.12841797 138.30175781 C136.12841797 154.47175781 136.12841797 170.64175781 136.12841797 187.30175781 C132.26441154 185.3697546 130.81102706 184.09774364 128.06591797 180.92675781 C124.57124612 176.94190922 121.03690625 173.0071513 117.44091797 169.11425781 C113.57829615 164.91761474 109.79946523 160.66732753 106.12841797 156.30175781 C105.99886719 157.89503906 105.99886719 157.89503906 105.86669922 159.52050781 C104.96904973 169.04888256 103.78653985 175.64363593 96.81591797 182.61425781 C90.75106268 186.42242276 85.23369073 187.75138739 78.14282227 187.54370117 C77.3887912 187.53461731 76.63476013 187.52553345 75.85787964 187.51617432 C74.23460547 187.49596433 72.61139901 187.46951403 70.98831749 187.43736076 C68.40943893 187.39082201 65.83165716 187.37111686 63.25239563 187.35975647 C55.92447901 187.32689015 48.59789367 187.27977776 41.27124023 187.1340332 C36.77445086 187.0465334 32.28052423 187.01843631 27.782938 187.02786446 C26.08085479 187.02043494 24.37871095 186.9914441 22.6774044 186.93949699 C12.50086572 186.4624906 12.50086572 186.4624906 3.72158813 190.88406372 C0.86734447 193.78542244 -1.49402503 197.00146191 -3.87158203 200.30175781 C-5.35125745 201.98649472 -6.84786098 203.65674962 -8.37158203 205.30175781 C-9.45439453 206.50832031 -9.45439453 206.50832031 -10.55908203 207.73925781 C-13.14773335 210.60776333 -15.75759216 213.45637741 -18.37158203 216.30175781 C-21.88164077 220.12600363 -25.386555 223.95465005 -28.87158203 227.80175781 C-29.92345703 228.96191406 -29.92345703 228.96191406 -30.99658203 230.14550781 C-32.90158377 232.26612027 -32.90158377 232.26612027 -34.49658203 234.58300781 C-34.95033203 235.15019531 -35.40408203 235.71738281 -35.87158203 236.30175781 C-36.53158203 236.30175781 -37.19158203 236.30175781 -37.87158203 236.30175781 C-37.87158203 220.13175781 -37.87158203 203.96175781 -37.87158203 187.30175781 C-49.03000958 187.4200136 -49.03000958 187.4200136 -60.18798828 187.57202148 C-61.6033459 187.58079632 -63.01871118 187.58843789 -64.43408203 187.59472656 C-65.14886719 187.61007446 -65.86365234 187.62542236 -66.60009766 187.64123535 C-72.72642191 187.64436529 -78.31335435 186.47224018 -83.11376953 182.39941406 C-83.65259766 181.7278125 -84.19142578 181.05621094 -84.74658203 180.36425781 C-85.30087891 179.69523438 -85.85517578 179.02621094 -86.42626953 178.33691406 C-88.93397128 174.80579889 -90.12013959 172.17509115 -90.13900757 167.81243896 C-90.14753754 166.9181871 -90.1560675 166.02393524 -90.16485596 165.10258484 C-90.16394958 164.12900528 -90.16304321 163.15542572 -90.16210938 162.15234375 C-90.1688266 161.12097794 -90.17554382 160.08961212 -90.1824646 159.0269928 C-90.2014804 155.61332393 -90.20537088 152.19985137 -90.20751953 148.78613281 C-90.21394586 146.41204752 -90.2206741 144.03796302 -90.22769165 141.66387939 C-90.23967403 136.68394129 -90.24337157 131.7040726 -90.2421875 126.72412109 C-90.24198447 120.35081758 -90.26926667 113.97796076 -90.30373192 107.60476303 C-90.32600041 102.69932014 -90.33002502 97.79398466 -90.32896805 92.8884964 C-90.33132484 90.53941562 -90.34015271 88.19033192 -90.35563278 85.84130096 C-90.37528722 82.55013547 -90.36945568 79.25993188 -90.35742188 75.96875 C-90.36866089 75.00326736 -90.3798999 74.03778473 -90.39147949 73.04304504 C-90.3202777 65.35731112 -88.53667031 60.02741628 -83.12158203 54.48925781 C-76.04212345 49.72423761 -69.99967347 48.86561107 -61.68408203 49.00878906 C-60.74097168 49.01303391 -59.79786133 49.01727875 -58.82617188 49.02165222 C-55.84100685 49.03832212 -52.85653985 49.07595206 -49.87158203 49.11425781 C-47.83643559 49.12931977 -45.80127848 49.14300552 -43.76611328 49.15527344 C-38.80100433 49.18818726 -33.83641116 49.23988782 -28.87158203 49.30175781 C-28.8925293 48.44533691 -28.91347656 47.58891602 -28.93505859 46.70654297 C-29.00385404 43.48230073 -29.05368029 40.25843662 -29.09130859 37.03369141 C-29.11123545 35.64684625 -29.13838763 34.260083 -29.17333984 32.87353516 C-29.39717497 23.7555454 -29.43518889 14.87949953 -23.37963867 7.47827148 C-16.85471044 1.2671411 -8.71091313 -0.16557126 0 0 Z " fill="#2EC4FC" transform="translate(89.87158203125,9.6982421875)"/>
<path d="M0 0 C1.27040697 0.00529095 1.27040697 0.00529095 2.56647873 0.01068878 C5.38169585 0.02575572 8.19621444 0.06225909 11.01123047 0.09863281 C13.03898095 0.11366864 15.06674308 0.12719854 17.09451294 0.13934326 C21.46580932 0.16735675 25.83693968 0.20356272 30.20812988 0.24487305 C37.25674147 0.30786377 44.30514651 0.32892146 51.35400391 0.34277344 C62.46528009 0.36607359 73.57614556 0.4149864 84.68722153 0.48571014 C91.0491453 0.52568403 97.41091338 0.55770043 103.77294922 0.57275391 C110.07014833 0.58788493 116.36697299 0.62216846 122.66400528 0.67006683 C125.02978407 0.68480736 127.39561571 0.69279458 129.76144028 0.69364166 C133.033759 0.69600516 136.30501353 0.72300022 139.57714844 0.75585938 C140.53275162 0.75082901 141.4883548 0.74579865 142.47291565 0.74061584 C149.64615221 0.85208432 155.00490881 2.51042287 160.40576172 7.33691406 C160.95361328 8.0059375 161.50146484 8.67496094 162.06591797 9.36425781 C162.63181641 10.03585938 163.19771484 10.70746094 163.78076172 11.39941406 C165.94174309 14.44984284 166.25561018 17.04344362 166.27558899 20.67082214 C166.28632195 22.01013794 166.28632195 22.01013794 166.29727173 23.37651062 C166.29996063 24.35368546 166.30264954 25.33086029 166.30541992 26.33764648 C166.31199112 27.36886627 166.31856232 28.40008606 166.32533264 29.46255493 C166.34507278 32.88161286 166.35673048 36.30062683 166.36669922 39.71972656 C166.37077475 40.88747431 166.37485027 42.05522205 166.3790493 43.25835609 C166.39991405 49.44022063 166.4142135 55.62206294 166.42358398 61.80395508 C166.43464335 68.18510771 166.4690371 74.56591115 166.50875568 80.94694042 C166.53491929 85.85666038 166.54327567 90.76629716 166.54686546 95.6760807 C166.5517328 98.0279609 166.5633509 100.37983734 166.58190346 102.7316494 C166.60628631 106.02767855 166.60533087 109.3228045 166.59838867 112.61889648 C166.61760376 114.06947701 166.61760376 114.06947701 166.63720703 115.54936218 C166.58314615 122.61059933 165.16160308 128.23364158 160.09326172 133.36035156 C159.08972656 134.04291016 159.08972656 134.04291016 158.06591797 134.73925781 C157.39431641 135.21234375 156.72271484 135.68542969 156.03076172 136.17285156 C149.44550203 140.08073668 145.11657464 138.30175781 136.12841797 138.30175781 C136.12841797 154.47175781 136.12841797 170.64175781 136.12841797 187.30175781 C132.26441154 185.3697546 130.81102706 184.09774364 128.06591797 180.92675781 C124.26465919 176.5876021 124.26465919 176.5876021 120.37841797 172.32519531 C119.91056885 171.82165527 119.44271973 171.31811523 118.96069336 170.79931641 C117.64121834 169.38260719 116.32040528 167.96714452 114.99951172 166.55175781 C114.55794235 166.04067474 114.11637299 165.52959167 113.66142273 165.00302124 C112.11026022 163.22385195 112.11026022 163.22385195 110.12825012 161.49038696 C103.32954677 154.58523806 103.1373792 148.28967726 103.17218018 139.10946655 C103.20422258 137.2647052 103.23651624 135.41994819 103.26904297 133.57519531 C103.27168548 131.65809253 103.27021157 129.74098011 103.26483154 127.82388306 C103.25907753 122.79919282 103.29736426 117.77592224 103.34869385 112.75152588 C103.42648206 104.70483851 103.45014781 96.65824774 103.44860077 88.61122513 C103.45640451 85.81235573 103.49119391 83.01476153 103.52886963 80.21615601 C103.53595029 78.4899734 103.54216056 76.76378694 103.54736328 75.03759766 C103.56496201 74.26855606 103.58256073 73.49951447 103.60069275 72.70716858 C103.57989483 66.2633329 101.59602708 61.09838148 97.31201172 56.24316406 C96.73580078 55.788125 96.15958984 55.33308594 95.56591797 54.86425781 C94.98712891 54.39117187 94.40833984 53.91808594 93.81201172 53.43066406 C90.70111702 51.34470451 87.9625504 51.1720538 84.33261108 51.15026855 C83.34547623 51.1419249 82.35834137 51.13358124 81.34129333 51.12498474 C80.2596138 51.12080032 79.17793427 51.11661591 78.06347656 51.11230469 C76.35347725 51.09986473 76.35347725 51.09986473 74.6089325 51.08717346 C72.13059256 51.06976017 69.65223604 51.05459686 67.17387009 51.04139709 C63.25833533 51.02040854 59.34288428 50.9933842 55.42739868 50.96472168 C46.41186197 50.89953312 37.39627041 50.84404647 28.38066864 50.78873444 C19.45766489 50.73389917 10.53470757 50.67525983 1.61177444 50.60987854 C-2.25771506 50.58320037 -6.12720856 50.5624505 -9.99673462 50.54187012 C-12.35296839 50.52527601 -14.70920022 50.50840497 -17.06542969 50.49121094 C-18.15115768 50.48702652 -19.23688568 50.4828421 -20.35551453 50.47853088 C-21.33700974 50.47018723 -22.31850494 50.46184357 -23.32974243 50.45324707 C-24.18772242 50.44809334 -25.0457024 50.44293961 -25.92968178 50.4376297 C-27.87158203 50.30175781 -27.87158203 50.30175781 -28.87158203 49.30175781 C-29.14018116 45.19126498 -29.14305899 41.07676397 -29.16674805 36.95825195 C-29.18375783 34.90342272 -29.22758687 32.85029077 -29.27197266 30.79589844 C-29.32621623 22.27131228 -28.98333342 14.32872719 -23.37988281 7.47802734 C-16.8538585 1.26768748 -8.71147449 -0.16558193 0 0 Z " fill="#2DA5FC" transform="translate(89.87158203125,9.6982421875)"/>
<path d="M0 0 C0.99128403 -0.00426498 1.98256805 -0.00852997 3.00389099 -0.01292419 C4.09537445 -0.01247101 5.18685791 -0.01201782 6.31141663 -0.0115509 C7.45781113 -0.01490952 8.60420563 -0.01826813 9.78533936 -0.02172852 C13.59099905 -0.03126062 17.39661486 -0.03318272 21.20228577 -0.03425598 C23.83782978 -0.03746684 26.47337361 -0.04083078 29.10891724 -0.04434204 C34.6396361 -0.05074141 40.170343 -0.05222406 45.70106506 -0.05158997 C52.09718155 -0.05098903 58.49321373 -0.06154334 64.88930887 -0.07733363 C71.03811742 -0.09197361 77.18688545 -0.09557836 83.33571053 -0.09498024 C85.95406501 -0.0961636 88.57242006 -0.10060517 91.19076347 -0.10831261 C94.84693857 -0.11806751 98.50289455 -0.11525228 102.15907288 -0.10920715 C103.2485321 -0.11482666 104.33799133 -0.12044617 105.46046448 -0.12623596 C106.95162025 -0.11994423 106.95162025 -0.11994423 108.47290039 -0.11352539 C109.33770995 -0.11407016 110.20251951 -0.11461493 111.09353542 -0.1151762 C113.29994202 0.13371277 113.29994202 0.13371277 116.29994202 2.13371277 C116.61244202 4.63371277 116.61244202 4.63371277 116.29994202 7.13371277 C113.78911349 9.6445413 112.9880251 9.38631689 109.51722717 9.39440918 C108.50766968 9.40149399 107.49811218 9.4085788 106.45796204 9.4158783 C105.34620605 9.41340088 104.23445007 9.41092346 103.08900452 9.40837097 C101.92149658 9.4134819 100.75398865 9.41859283 99.55110168 9.42385864 C96.34452837 9.43539951 93.13811487 9.43782471 89.93152618 9.43529534 C87.25739478 9.43422744 84.58327748 9.43910429 81.90915108 9.44390076 C75.6025476 9.4550041 69.29600367 9.45542852 62.98939514 9.4493866 C56.47619409 9.44334288 49.96320885 9.45566584 43.45004463 9.47695667 C37.86359336 9.49454888 32.27721093 9.50057787 26.69073296 9.49731892 C23.3516974 9.49550233 20.0127844 9.49817952 16.67378235 9.51203346 C12.95264317 9.52430382 9.23200996 9.51766278 5.51087952 9.50602722 C4.39912354 9.51367096 3.28736755 9.5213147 2.141922 9.52919006 C1.1323645 9.52217575 0.12280701 9.51516144 -0.91734314 9.50793457 C-2.2380632 9.50818618 -2.2380632 9.50818618 -3.58546448 9.50844288 C-4.63218826 9.32295147 -4.63218826 9.32295147 -5.70005798 9.13371277 C-7.70005798 6.13371277 -7.70005798 6.13371277 -7.45005798 3.50871277 C-7.20255798 2.72496277 -6.95505798 1.94121277 -6.70005798 1.13371277 C-4.26881444 -0.081909 -2.7174859 0.00526829 0 0 Z " fill="#F9FDFE" transform="translate(42.70005798339844,151.8662872314453)"/>
<path d="M0 0 C1.00818283 -0.00426498 2.01636566 -0.00852997 3.05509949 -0.01292419 C4.17045074 -0.01247101 5.285802 -0.01201782 6.43495178 -0.0115509 C7.60231369 -0.01490952 8.7696756 -0.01826813 9.97241211 -0.02172852 C13.18313865 -0.029624 16.39382646 -0.03290744 19.60456157 -0.0335443 C22.28112464 -0.03449184 24.95768145 -0.03816835 27.63424212 -0.0417164 C33.94704698 -0.04986838 40.25983757 -0.05229996 46.57264709 -0.05158997 C53.09316209 -0.050989 59.6135944 -0.06154274 66.13408846 -0.07733363 C71.72475575 -0.09039222 77.31539596 -0.09577457 82.9060784 -0.09513456 C86.24845981 -0.09487907 89.5907678 -0.0977581 92.93313408 -0.10831261 C96.65907118 -0.11805535 100.38479283 -0.11525714 104.11073303 -0.10920715 C105.78072357 -0.11763641 105.78072357 -0.11763641 107.48445129 -0.12623596 C108.49545395 -0.12204147 109.5064566 -0.11784698 110.5480957 -0.11352539 C111.42987456 -0.11407016 112.31165342 -0.11461493 113.22015285 -0.1151762 C115.33753967 0.13371277 115.33753967 0.13371277 117.33753967 2.13371277 C116.78198412 6.68926832 116.78198412 6.68926832 115.33753967 8.13371277 C113.78598035 8.23392839 112.22986896 8.26446935 110.67507935 8.26742554 C109.1628051 8.27382301 109.1628051 8.27382301 107.61997986 8.28034973 C106.5046286 8.27989655 105.38927734 8.27944336 104.24012756 8.27897644 C103.07276566 8.28233505 101.90540375 8.28569366 100.70266724 8.28915405 C97.4919407 8.29704954 94.28125288 8.30033298 91.07051778 8.30096984 C88.39395471 8.30191738 85.7173979 8.30559388 83.04083723 8.30914193 C76.72803237 8.31729392 70.41524177 8.3197255 64.10243225 8.3190155 C57.58191726 8.31841454 51.06148495 8.32896828 44.54099089 8.34475917 C38.9503236 8.35781776 33.35968338 8.36320011 27.76900095 8.36256009 C24.42661953 8.3623046 21.08431155 8.36518364 17.74194527 8.37573814 C14.01600816 8.38548088 10.29028652 8.38268268 6.56434631 8.37663269 C4.89435577 8.38506195 4.89435577 8.38506195 3.19062805 8.3936615 C2.1796254 8.38946701 1.16862274 8.38527252 0.12698364 8.38095093 C-0.75479522 8.3814957 -1.63657408 8.38204046 -2.54507351 8.38260174 C-4.66246033 8.13371277 -4.66246033 8.13371277 -6.66246033 6.13371277 C-5.99593899 0.66823781 -5.3596836 0.01019058 0 0 Z " fill="#FEFEFE" transform="translate(41.66246032714844,125.86628723144531)"/>
<path d="M0 0 C1.21465942 -0.00637985 2.42931885 -0.0127597 3.68078613 -0.01933289 C4.99848999 -0.02044571 6.31619385 -0.02155853 7.67382812 -0.02270508 C9.03381384 -0.02591708 10.3937992 -0.02928111 11.75378418 -0.03279114 C14.60523276 -0.03878233 17.45665103 -0.040631 20.30810547 -0.04003906 C23.96688434 -0.03993733 27.62546964 -0.05360134 31.28420258 -0.07081127 C34.09284361 -0.0819129 36.90143753 -0.08395886 39.71009827 -0.08342934 C41.7165368 -0.08518773 43.72296064 -0.0960383 45.72937012 -0.10697937 C47.55135925 -0.10236443 47.55135925 -0.10236443 49.41015625 -0.09765625 C50.48334106 -0.09908127 51.55652588 -0.10050629 52.66223145 -0.10197449 C55.20507812 0.14526367 55.20507812 0.14526367 57.20507812 2.14526367 C57.45507812 4.64526367 57.45507812 4.64526367 57.20507812 7.14526367 C54.5035203 9.8468215 53.09714446 9.40396299 49.31835938 9.41992188 C48.0836792 9.42945389 46.84899902 9.4389859 45.5769043 9.44880676 C44.22379528 9.44854537 42.87068626 9.44760848 41.51757812 9.44604492 C40.13517121 9.44993026 38.75276549 9.45426459 37.37036133 9.45903015 C34.47180309 9.466497 31.57336665 9.46619753 28.67480469 9.4609375 C24.95537833 9.4551383 21.2364492 9.47208184 17.5171051 9.49528217 C14.66212028 9.50999341 11.80725599 9.51089489 8.95223999 9.50777245 C7.58066827 9.50828685 6.20909002 9.51354695 4.83755493 9.52358437 C2.92234068 9.53588124 1.00702624 9.52724019 -0.90820312 9.51757812 C-1.99915283 9.51820755 -3.09010254 9.51883698 -4.21411133 9.51948547 C-5.06577881 9.39599228 -5.91744629 9.27249908 -6.79492188 9.14526367 C-8.79492188 6.14526367 -8.79492188 6.14526367 -8.54492188 3.52026367 C-8.29742187 2.73651367 -8.04992188 1.95276367 -7.79492188 1.14526367 C-5.1043007 -0.20004692 -3.01260857 0.01070035 0 0 Z " fill="#FAFDFE" transform="translate(43.794921875,98.854736328125)"/>
</svg>
