<?xml version="1.0" encoding="UTF-8"?>
<svg version="1.1" xmlns="http://www.w3.org/2000/svg" width="512" height="512">
<path d="M0 0 C2.01637649 -0.00379553 4.03275036 -0.00930562 6.04911804 -0.01637268 C11.46010627 -0.0301802 16.8707713 -0.01926386 22.28174114 -0.00266147 C27.97967892 0.01132608 33.67760051 0.00471381 39.37554932 0.00120544 C48.93417489 -0.00148507 58.49267405 0.0118817 68.05126953 0.03515625 C79.06453752 0.06178907 90.07759478 0.06349897 101.09088397 0.05176789 C111.74078458 0.04095028 122.3906098 0.0472064 133.04050446 0.06132317 C137.54885922 0.06704542 142.05715812 0.06703023 146.56551361 0.06225777 C151.88126316 0.05744861 157.19678492 0.06775104 162.51249123 0.08921242 C164.45052383 0.09472608 166.38857857 0.09529621 168.32661247 0.09025955 C196.61115382 0.02602649 222.45611189 7.01694828 242.98144531 27.34155273 C261.03434028 45.98890045 271.1032643 69.86490736 271.01269531 95.94311523 C270.3654413 122.8359417 259.34891524 146.79124762 239.98144531 165.50170898 C233.4982218 171.11745892 220.26512253 182.50170898 210.98144531 182.50170898 C211.31144531 209.89170898 211.64144531 237.28170898 211.98144531 265.50170898 C213.96144531 262.53170898 215.94144531 259.56170898 217.98144531 256.50170898 C220.36035156 254.38061523 220.36035156 254.38061523 222.54394531 253.06420898 C223.26710938 252.61174805 223.99027344 252.15928711 224.73535156 251.69311523 C232.11780873 247.77720317 239.77485611 247.34793473 247.98144531 248.50170898 C256.64455384 251.21557018 262.93314236 255.77011023 267.18847656 263.77124023 C269.01218747 267.65709776 270.23082856 271.26555504 270.98144531 275.50170898 C271.33335937 274.92163086 271.68527344 274.34155273 272.04785156 273.74389648 C277.15538967 265.66251766 282.8434665 259.68275807 292.23144531 256.81420898 C301.81220072 255.72548678 310.02411443 256.59094416 318.27832031 262.00952148 C326.14623718 268.36892797 329.12942064 275.23056514 330.29394531 285.06420898 C330.55463701 287.54242658 330.77725368 290.01788535 330.98144531 292.50170898 C331.32175781 291.84944336 331.66207031 291.19717773 332.01269531 290.52514648 C336.46218276 282.50186858 341.07021118 277.61513031 349.85644531 274.62670898 C358.23257301 272.47174811 366.12393883 272.72897122 373.98144531 276.50170898 C381.94648511 281.24622728 386.5550987 287.17865797 389.36366463 295.9458065 C390.45737077 300.47072338 390.40651071 304.94468052 390.38549805 309.57910156 C390.39579292 311.18611435 390.39579292 311.18611435 390.40629578 312.82559204 C390.42451541 316.34927845 390.42072954 319.87251703 390.41503906 323.39624023 C390.4196064 325.86895388 390.42491361 328.34166627 390.43092346 330.81437683 C390.43984763 335.99658359 390.43744301 341.17863623 390.42749023 346.36083984 C390.41606055 352.9491903 390.43612378 359.53699997 390.46540737 366.12527943 C390.48391251 371.23623452 390.48344762 376.3470638 390.47776985 381.45804405 C390.47761806 383.88372233 390.48354231 386.30940994 390.49606133 388.73505592 C390.63964131 421.14152008 384.25067446 446.87598747 360.98144531 470.50170898 C360.20027344 471.30737305 359.41910156 472.11303711 358.61425781 472.94311523 C338.3728283 492.53709161 311.13855712 496.99936779 284.11035156 496.90014648 C282.13370151 496.90217451 280.15705219 496.90509195 278.18040466 496.90884399 C274.06314888 496.91323416 269.94609006 496.90694479 265.82885742 496.89282227 C260.6002331 496.8757439 255.37207146 496.88558448 250.14346409 496.90353966 C246.06891004 496.91447737 241.99446229 496.91088565 237.91990471 496.90315628 C235.99414958 496.90118115 234.0683842 496.90351682 232.14264107 496.91059494 C215.18018229 496.95927963 199.6551218 495.53270268 183.98144531 488.50170898 C182.99917969 488.08276367 182.01691406 487.66381836 181.00488281 487.23217773 C154.83560947 475.2523125 141.66687557 452.22129875 129.23144531 427.62670898 C127.89456549 424.99831821 126.55572108 422.37093394 125.21684265 419.74356079 C124.33869573 418.01990512 123.46117522 416.29593017 122.58430481 414.57162476 C119.31905571 408.15207035 116.01347373 401.75538233 112.66894531 395.37670898 C108.31155248 387.05575133 103.98183972 378.72080346 99.66894531 370.37670898 C99.19672546 369.46320679 99.19672546 369.46320679 98.71496582 368.53125 C97.11277208 365.43169616 95.51087929 362.33198694 93.90917969 359.23217773 C90.74722457 353.11293514 87.58321173 346.99475664 84.41894531 340.87670898 C83.95337219 339.97650024 83.95337219 339.97650024 83.47839355 339.05810547 C79.54263608 331.44846289 75.60387987 323.84038136 71.66015625 316.23486328 C70.50927126 314.01523022 69.35887198 311.79534524 68.20898438 309.57519531 C65.49176659 304.33102698 62.76868587 299.09010905 60.02745056 293.85845947 C58.72033401 291.36292266 57.41632736 288.86576718 56.11257935 286.36846924 C55.18966875 284.60383291 54.26224353 282.84156008 53.3347168 281.0793457 C52.77856689 280.01345215 52.22241699 278.94755859 51.64941406 277.84936523 C50.9111438 276.44182983 50.9111438 276.44182983 50.15795898 275.00585938 C46.62888736 267.49440729 46.58797737 257.88615633 49.07519531 250.06030273 C53.21002506 241.27378952 58.52694361 235.8732747 67.54394531 232.26342773 C76.66056472 229.41448417 85.42513847 230.163441 93.98144531 234.50170898 C101.9403543 240.06579656 106.33884615 247.34025092 110.98144531 255.68920898 C111.7097408 256.96878041 112.43984171 258.24732573 113.17163086 259.52490234 C114.68996554 262.17894321 116.2005005 264.83719309 117.70556641 267.4987793 C120.98878203 273.29111762 124.363988 279.02930963 127.73901367 284.76846313 C128.74356226 286.47844499 129.74443762 288.19058315 130.74511719 289.90283203 C136.74258918 300.15353636 142.86977213 310.31558701 148.98144531 320.50170898 C149.31144531 277.27170898 149.64144531 234.04170898 149.98144531 189.50170898 C138.01636719 189.52491211 126.05128906 189.54811523 113.72363281 189.57202148 C106.13118403 189.58224382 98.53874025 189.59195494 90.94628906 189.59936523 C78.90248911 189.61121476 66.85871722 189.62511604 54.81494141 189.65258789 C46.04203428 189.67258927 37.26915 189.68544137 28.49622071 189.68988597 C23.85564539 189.69248197 19.21513542 189.6985374 14.57458115 189.7131691 C10.19649515 189.72685989 5.81850072 189.73090867 1.44039536 189.72792435 C-0.15661112 189.72846941 -1.75362102 189.73237779 -3.35060883 189.74011993 C-32.8712025 189.87607612 -57.84429061 181.98358694 -79.64355469 161.37670898 C-97.48058549 142.97260494 -106.45578042 118.54597086 -106.38696289 93.06054688 C-105.78524548 68.06594224 -96.21759936 46.48252842 -79.01855469 28.50170898 C-78.40496094 27.81334961 -77.79136719 27.12499023 -77.15917969 26.41577148 C-57.23537755 4.87422473 -27.92183958 -0.15264174 0 0 Z " fill="#F5CDA9" transform="translate(114.0185546875,7.498291015625)"/>
<path d="M0 0 C2.01637649 -0.00379553 4.03275036 -0.00930562 6.04911804 -0.01637268 C11.46010627 -0.0301802 16.8707713 -0.01926386 22.28174114 -0.00266147 C27.97967892 0.01132608 33.67760051 0.00471381 39.37554932 0.00120544 C48.93417489 -0.00148507 58.49267405 0.0118817 68.05126953 0.03515625 C79.06453752 0.06178907 90.07759478 0.06349897 101.09088397 0.05176789 C111.74078458 0.04095028 122.3906098 0.0472064 133.04050446 0.06132317 C137.54885922 0.06704542 142.05715812 0.06703023 146.56551361 0.06225777 C151.88126316 0.05744861 157.19678492 0.06775104 162.51249123 0.08921242 C164.45052383 0.09472608 166.38857857 0.09529621 168.32661247 0.09025955 C196.61115382 0.02602649 222.45611189 7.01694828 242.98144531 27.34155273 C261.03434028 45.98890045 271.1032643 69.86490736 271.01269531 95.94311523 C270.3654413 122.8359417 259.34891524 146.79124762 239.98144531 165.50170898 C232.87528583 171.65704431 219.99779308 182.50170898 209.98144531 182.50170898 C209.98002029 181.49661285 209.97859528 180.49151672 209.97712708 179.45596313 C209.96040812 169.9522296 209.91748546 160.44892156 209.84935474 150.94541359 C209.81516343 146.06030851 209.78998702 141.17551357 209.78588867 136.2902832 C209.78158882 131.56968507 209.75298703 126.84978561 209.70801353 122.12940598 C209.69509223 120.33467056 209.69071169 118.53985131 209.69529152 116.74507523 C209.73475293 102.91035946 209.73475293 102.91035946 203.98144531 90.50170898 C203.11519531 89.10952148 203.11519531 89.10952148 202.23144531 87.68920898 C196.16621331 81.79245565 188.0678132 78.58268955 179.66894531 78.12670898 C171.53332645 78.36192245 164.60793669 81.93490128 158.73925781 87.43530273 C152.51907059 94.74747838 150.84403476 102.53128634 150.77612305 111.8503418 C150.76622345 112.68973297 150.75632385 113.52912415 150.74612427 114.39395142 C150.71457533 117.16421706 150.68977796 119.93449985 150.66503906 122.70483398 C150.64446383 124.6272628 150.62346721 126.54968714 150.60206604 128.47210693 C150.54690416 133.52893453 150.49746893 138.58580256 150.44921875 143.6427002 C150.39896077 148.80407301 150.34329713 153.9653872 150.28808594 159.12670898 C150.18057632 169.25165889 150.07911537 179.37665972 149.98144531 189.50170898 C128.31876614 189.54853274 106.65609538 189.58374853 84.99337578 189.60533333 C74.93388039 189.61562412 64.87441654 189.62964223 54.81494141 189.65258789 C46.04203428 189.67258927 37.26915 189.68544137 28.49622071 189.68988597 C23.85564539 189.69248197 19.21513542 189.6985374 14.57458115 189.7131691 C10.19649515 189.72685989 5.81850072 189.73090867 1.44039536 189.72792435 C-0.15661112 189.72846941 -1.75362102 189.73237779 -3.35060883 189.74011993 C-32.8712025 189.87607612 -57.84429061 181.98358694 -79.64355469 161.37670898 C-97.48058549 142.97260494 -106.45578042 118.54597086 -106.38696289 93.06054688 C-105.78524548 68.06594224 -96.21759936 46.48252842 -79.01855469 28.50170898 C-78.40496094 27.81334961 -77.79136719 27.12499023 -77.15917969 26.41577148 C-57.23537755 4.87422473 -27.92183958 -0.15264174 0 0 Z " fill="#33C455" transform="translate(114.0185546875,7.498291015625)"/>
<path d="M0 0 C2.9375 2.125 2.9375 2.125 5 5 C5.72331444 10.3465614 4.18084662 12.84055392 1 17.0625 C0.56139648 17.65264893 0.12279297 18.24279785 -0.32910156 18.85083008 C-1.8700244 20.91316308 -3.43369977 22.95688079 -5 25 C-6.24517983 26.63772578 -7.48995155 28.27576191 -8.734375 29.9140625 C-10.76106994 32.57811117 -12.79028776 35.24010963 -14.82543945 37.89770508 C-19.34496591 43.8018294 -23.79319939 49.75220636 -28.1875 55.75 C-32.7969292 62.02763489 -37.42735586 68.28799689 -42.125 74.5 C-42.65762451 75.2125293 -43.19024902 75.92505859 -43.73901367 76.65917969 C-49.68159786 84.47309042 -49.68159786 84.47309042 -54.75 85.625 C-59.82481013 84.64907497 -62.40314444 81.57372465 -66 78 C-67.12229176 76.9035393 -68.24469604 75.80719376 -69.3671875 74.7109375 C-79.84149415 64.40013502 -79.84149415 64.40013502 -80.375 59.6875 C-80 56 -80 56 -77.875 53.0625 C-75 51 -75 51 -72.1875 50.25 C-67.3123391 51.39709668 -64.48664978 54.53560543 -61 58 C-59.7625 59.2065625 -59.7625 59.2065625 -58.5 60.4375 C-58.005 60.953125 -57.51 61.46875 -57 62 C-53.64072231 60.88024077 -53.19085244 60.26397398 -51.20703125 57.484375 C-50.66755859 56.73865234 -50.12808594 55.99292969 -49.57226562 55.22460938 C-48.99154297 54.40798828 -48.41082031 53.59136719 -47.8125 52.75 C-46.54981814 51.00402035 -45.28543195 49.25927228 -44.01953125 47.515625 C-43.36033691 46.60619141 -42.70114258 45.69675781 -42.02197266 44.75976562 C-38.74688952 40.28964491 -35.3737342 35.89586652 -32 31.5 C-26.02301259 23.70636317 -20.15888954 15.83982794 -14.42773438 7.86328125 C-13.61852539 6.74953125 -13.61852539 6.74953125 -12.79296875 5.61328125 C-12.08950317 4.63548706 -12.08950317 4.63548706 -11.37182617 3.63793945 C-8.00087173 -0.38692856 -4.98500673 -0.60163874 0 0 Z " fill="#FCFEFC" transform="translate(234,60)"/>
</svg>
