<?xml version="1.0" encoding="UTF-8" standalone="no"?>
<svg xmlns="http://www.w3.org/2000/svg" xmlns:xlink="http://www.w3.org/1999/xlink" width="245" height="320" version="1.0">
  <defs>
    <radialGradient xlink:href="#a" id="g" cx="110.34235" cy="73.548759" r="107.35573" fx="110.34235" fy="73.548759" gradientTransform="matrix(.16553 .17825 -.83933 .77944 127.29954 11.561238)" gradientUnits="userSpaceOnUse"/>
    <radialGradient xlink:href="#a" id="d" cx="153.00395" cy="236.3652" r="39.313005" fx="153.00395" fy="236.3652" gradientTransform="matrix(.28068 .353 -1.26462 1.00556 413.80133 -50.824562)" gradientUnits="userSpaceOnUse"/>
    <radialGradient xlink:href="#a" id="e" cx="20.16287" cy="251.77626" r="41.696297" fx="20.16287" fy="251.77626" gradientTransform="matrix(.21792 .30131 -1.99227 1.44088 578.3024 -127.42489)" gradientUnits="userSpaceOnUse"/>
    <filter id="c" width="1.3047347" height="1.1979496" x="-.15236734" y="-.09897482">
      <feGaussianBlur stdDeviation="5.2942949"/>
    </filter>
    <filter id="b" width="1.2872803" height="1.2060831" x="-.14364016" y="-.10304152">
      <feGaussianBlur stdDeviation="4.705772"/>
    </filter>
    <filter id="f">
      <feGaussianBlur stdDeviation="7.7471789"/>
    </filter>
    <linearGradient id="a">
      <stop offset="0" stop-color="#ffe4a8"/>
      <stop offset="1" stop-color="#ffe4a7" stop-opacity="0"/>
    </linearGradient>
  </defs>
  <g stroke="#000" stroke-linecap="round" stroke-miterlimit="7.5" stroke-width="5.63839912">
    <path d="m124.7794 186.89209 28.85924-1.69761 44.12837 85.39333-30.80386-8.57128-30.81343 27.14442-11.37032-102.26886z" filter="url(#b)" opacity=".8"/>
    <path d="m83.015193 192.72509 35.649707 3.39523-16.1369 119.34557-29.106247-28.94261-32.51105 11.86589 42.10449-105.66408z" filter="url(#c)" opacity=".8"/>
    <path fill="#e6b800" d="m80.468786 185.20779 35.649704 3.39523L99.981598 307.9486l-29.106249-28.94262-32.511054 11.8659 42.104491-105.66409zm44.562324-7.63921 28.85924-1.69761 44.12837 85.39333-30.80386-8.57128-30.81343 27.14442-11.37032-102.26886z"/>
  </g>
  <g stroke="#000" stroke-linecap="round" stroke-miterlimit="7.5" stroke-width="5.63839912">
    <path fill="url(#d)" d="m125.62821 178.8921 28.85924-1.69761 44.12837 85.39333-30.80386-8.57128-30.81343 27.14442-11.37032-102.26886z" opacity=".9"/>
    <path fill="url(#e)" d="m79.619966 185.63225 35.649704 3.39523-16.136892 119.34558-29.106249-28.94262-32.511054 11.8659 42.104491-105.66409z" opacity=".8"/>
  </g>
  <g stroke="#000" stroke-linecap="round" stroke-miterlimit="7.5" stroke-width="7">
    <path d="m179.78659 194.70821-32.86553-17.1853-7.77528 36.26324-23.03426-29.06716-21.852653 29.96562-9.220168-35.92305-32.151509 18.48668 6.18818-36.56752-36.891078 3.81123 20.526537-30.88913L7.4589832 122.0796l31.3156688-19.86974-27.517249-24.8652 36.690037-5.414678-15.024669-33.907764 35.720364 9.976628.065812-37.087368 28.574316 23.642885L112.42818.70013466 128.91569 33.921206l27.60532-24.7673852 1.54986 37.0550322 35.29252-11.398035-13.65577 34.481842 36.87732 3.942137-26.50019 25.946429 32.08569 18.600674-34.76249 12.92465 21.74616 30.04299-37.01405-2.33193 7.64653 36.2906z" filter="url(#f)" opacity=".8" transform="translate(8.506243 19.628582)"/>
    <path fill="#e7b800" d="m185.7282345 206.591499-32.86553-17.1853-7.77528 36.26324-23.03426-29.06716-21.852653 29.96562-9.220168-35.92305-32.151509 18.48668 6.18818-36.56752-36.891078 3.81123 20.526537-30.88913-35.2518458-11.52322 31.3156688-19.86974-27.517249-24.8652 36.690037-5.414678-15.024669-33.907764 35.720364 9.976628.065812-37.087368 28.574316 23.642885 15.144917-33.85422834 16.48751 33.22107134 27.60532-24.7673852 1.54986 37.0550322 35.29252-11.398035-13.65577 34.481842 36.87732 3.942137-26.50019 25.946429 32.08569 18.600674-34.76249 12.92465 21.74616 30.04299-37.01405-2.33193 7.64653 36.2906z"/>
  </g>
  <path fill="url(#g)" d="m179.78659 194.70821-32.86553-17.1853-7.77528 36.26324-23.03426-29.06716-21.852653 29.96562-9.220168-35.92305-32.151509 18.48668 6.18818-36.56752-36.891078 3.81123 20.526537-30.88913L7.4589832 122.0796l31.3156688-19.86974-27.517249-24.8652 36.690037-5.414678-15.024669-33.907764 35.720364 9.976628.065812-37.087368 28.574316 23.642885L112.42818.70013466 128.91569 33.921206l27.60532-24.7673852 1.54986 37.0550322 35.29252-11.398035-13.65577 34.481842 36.87732 3.942137-26.50019 25.946429 32.08569 18.600674-34.76249 12.92465 21.74616 30.04299-37.01405-2.33193 7.64653 36.2906z" transform="translate(13.966086 19.508006) scale(.93148)"/>
</svg>