<?xml version="1.0" encoding="utf-8"?>
<!-- Generator: Adobe Illustrator 12.0.1, SVG Export Plug-In . SVG Version: 6.00 Build 51448)  -->
<!DOCTYPE svg PUBLIC "-//W3C//DTD SVG 1.1//EN" "http://www.w3.org/Graphics/SVG/1.1/DTD/svg11.dtd" [
	<!ENTITY ns_svg "http://www.w3.org/2000/svg">
	<!ENTITY ns_xlink "http://www.w3.org/1999/xlink">
]>
<svg  version="1.1" id="Layer_1" xmlns="&ns_svg;" xmlns:xlink="&ns_xlink;" width="313.649" height="351.272"
	 viewBox="0 0 313.649 351.272" overflow="visible" enable-background="new 0 0 313.649 351.272" xml:space="preserve">
<g>
	<path fill-rule="evenodd" clip-rule="evenodd" fill="#E1B546" stroke="#815D38" stroke-width="2" d="M220.588,314.254l-3.854-0.684
		l-0.729,3.847c-1.473,7.786-1.431,13.539-1.049,19.053c0.213,3.066,0.542,6.092,0.76,9.45
		c-23.265-16.37-35.292-31.92-41.867-45.374c-3.584-7.332-5.596-14.14-6.896-20.265c-1.086-5.112-1.676-9.729-2.258-13.743
		l53.29-31.298c21.198,40.199,50.355,58.438,92.637,70.666C285.766,316.136,234.538,316.73,220.588,314.254z"/>
	<path fill-rule="evenodd" clip-rule="evenodd" fill="#E1B546" stroke="#815D38" stroke-width="2" d="M93.062,317.588l3.854-0.684
		l0.729,3.847c1.473,7.786,1.431,13.539,1.049,19.053c-0.213,3.066-0.542,6.091-0.76,9.45c23.264-16.37,35.292-31.92,41.867-45.374
		c3.584-7.332,5.596-14.14,6.896-20.265c1.086-5.112,1.676-9.729,2.258-13.743l-53.291-31.298
		c-21.198,40.198-50.355,58.438-92.636,70.665C27.884,319.47,79.113,320.064,93.062,317.588z"/>
	<polygon fill="#E1B546" stroke="#815D38" stroke-width="1.5" points="157.328,1.254 166.317,13.29 176.892,2.622 184.121,15.794 
		196.077,6.702 201.403,20.753 214.508,13.414 217.828,28.07 231.826,22.628 233.075,37.604 247.693,34.164 246.847,49.167 
		261.802,47.797 258.877,62.536 273.878,63.262 268.931,77.451 283.683,80.258 276.814,93.62 291.032,98.455 282.369,110.729 
		295.776,117.498 285.492,128.446 297.825,137.015 286.119,146.425 297.142,156.629 284.239,164.317 293.735,175.956 
		279.889,181.772 287.676,194.621 273.154,198.452 279.077,212.261 264.166,214.032 268.11,228.53 253.095,228.208 254.985,243.115 
		240.164,240.705 239.96,255.73 225.618,251.279 223.327,266.13 209.743,259.726 205.411,274.111 192.849,265.877 186.555,279.521 
		175.262,269.618 167.132,282.253 157.327,270.874 147.521,282.253 139.392,269.618 128.098,279.521 121.806,265.877 
		109.245,274.111 104.911,259.726 91.327,266.13 89.037,251.279 74.693,255.729 74.492,240.705 59.668,243.115 61.558,228.208 
		46.544,228.53 50.489,214.032 35.576,212.26 41.499,198.452 26.978,194.621 34.764,181.771 20.918,175.956 30.415,164.317 
		17.512,156.629 28.536,146.425 16.826,137.015 29.163,128.446 18.877,117.498 32.285,110.729 23.623,98.454 37.841,93.619 
		30.97,80.258 45.722,77.45 40.776,63.262 55.776,62.536 52.853,47.797 67.807,49.167 66.961,34.164 81.579,37.603 82.828,22.628 
		96.827,28.07 100.145,13.414 113.251,20.753 118.578,6.702 130.534,15.794 137.761,2.622 148.338,13.29 	"/>
	<linearGradient id="XMLID_2_" gradientUnits="userSpaceOnUse" x1="157.3252" y1="23.8335" x2="157.3251" y2="259.6719">
		<stop  offset="0" style="stop-color:#E1B546"/>
		<stop  offset="0.4555" style="stop-color:#DEB346"/>
		<stop  offset="0.6195" style="stop-color:#D5AA46"/>
		<stop  offset="0.7365" style="stop-color:#C69C43"/>
		<stop  offset="0.831" style="stop-color:#B38942"/>
		<stop  offset="0.911" style="stop-color:#9B753D"/>
		<stop  offset="0.9815" style="stop-color:#825E38"/>
		<stop  offset="0.9841" style="stop-color:#815D38"/>
	</linearGradient>
	<circle fill="url(#XMLID_2_)" cx="157.325" cy="141.754" r="117.918"/>
</g>
</svg>
