<?xml version="1.0" encoding="UTF-8"?>
<svg version="1.1" xmlns="http://www.w3.org/2000/svg" width="512" height="512">
<path d="M0 0 C0.80113908 -0.00350607 1.60227815 -0.00701215 2.42769417 -0.01062447 C5.11698664 -0.01994153 7.8060627 -0.01501435 10.49536419 -0.01015663 C12.44103585 -0.01389273 14.38670602 -0.01849409 16.3323738 -0.02388728 C21.68300219 -0.03613759 27.03356815 -0.03585442 32.38420737 -0.03349853 C38.15325394 -0.03309087 43.92228035 -0.04412454 49.69131756 -0.05361366 C60.99532729 -0.0702356 72.29931616 -0.07572374 83.60333709 -0.07683842 C92.79028705 -0.07778829 101.97723011 -0.08189555 111.16417789 -0.08823967 C132.96458743 -0.10298806 154.7649916 -0.11528906 176.5654068 -0.11424255 C177.61118727 -0.11419582 177.61118727 -0.11419582 178.67809462 -0.11414814 C182.21172926 -0.11398192 185.74536389 -0.11378384 189.27899853 -0.11357872 C189.98079124 -0.11353883 190.68258395 -0.11349894 191.4056431 -0.11345784 C192.82483893 -0.11337697 194.24403477 -0.11329337 195.6632306 -0.11320706 C217.74415754 -0.11198152 239.82502306 -0.12699527 261.90593243 -0.15435219 C286.71366997 -0.18507481 311.52136685 -0.20225925 336.32912463 -0.20042574 C349.46437792 -0.1997613 362.59956195 -0.20527735 375.73479939 -0.22678185 C386.91761774 -0.24497239 398.10033543 -0.24935842 409.28316215 -0.235763 C414.98956517 -0.22922275 420.69577493 -0.22915444 426.40215969 -0.2464695 C431.62625372 -0.26215822 436.85000057 -0.25937942 442.07408591 -0.24190123 C443.96369233 -0.2388221 445.8533244 -0.24249799 447.74290059 -0.25362138 C465.87437499 -0.35328491 465.87437499 -0.35328491 472.91545391 4.25726891 C473.82295391 4.83476891 474.73045391 5.41226891 475.66545391 6.00726891 C480.88038333 11.22219832 484.03521 16.92742581 484.04967499 24.35174656 C484.05413283 25.41173837 484.05859068 26.47173018 484.06318361 27.56384295 C484.06290706 29.31682215 484.06290706 29.31682215 484.06262493 31.10521507 C484.06630162 32.34353374 484.06997831 33.5818524 484.07376641 34.85769588 C484.08289641 38.30156471 484.08750363 41.74538587 484.09015572 45.18926227 C484.09405798 48.90106121 484.10363638 52.61284633 484.11236858 56.32463646 C484.13213533 65.29198222 484.14219952 74.25932911 484.15109637 83.22669122 C484.15547897 87.44903574 484.16084586 91.671379 484.16608524 95.89372253 C484.18309782 109.928879 484.19759212 123.96403468 484.20483398 137.99919987 C484.2067439 141.64178214 484.20866423 145.2843644 484.21061993 148.92694664 C484.21110367 149.83229854 484.21158741 150.73765045 484.21208581 151.67043725 C484.22038658 166.33742959 484.24572417 181.00434037 484.2782006 195.6712971 C484.31126775 210.72771757 484.32928244 225.7840966 484.33247823 240.84055358 C484.33464365 249.29494171 484.34339708 257.74921094 484.3689394 266.20356369 C484.39064171 273.40355339 484.39869916 280.60339531 484.38897262 287.80341401 C484.3844265 291.4763498 484.38633188 295.14898062 484.40573406 298.82187462 C484.42659928 302.80617792 484.41638484 306.79006072 484.4032011 310.77440453 C484.41965497 312.51065331 484.41965497 312.51065331 484.43644124 314.28197783 C484.36604023 323.08554208 482.32539413 329.84732869 475.91545391 336.25726891 C469.29177219 340.50846826 464.08922185 342.40716299 456.20005131 342.39148998 C455.40237376 342.39384221 454.60469622 342.39619444 453.78284663 342.39861795 C451.08732 342.40531967 448.39184145 342.40484938 445.69630718 342.40443993 C443.75322573 342.40773782 441.81014496 342.41146323 439.86706507 342.41558141 C434.50967478 342.425618 429.15229569 342.42932086 423.79489732 342.43197072 C418.023758 342.43586886 412.25262759 342.44544754 406.48149395 342.45418358 C392.53523183 342.47396197 378.58896896 342.48401599 364.64269632 342.49291137 C358.07891762 342.49729206 351.51513972 342.50265944 344.95136166 342.50790024 C323.13820779 342.52491398 301.32505465 342.53943369 279.51189518 342.54664898 C278.10094256 342.54712374 276.68998995 342.54759963 275.27903733 342.54807664 C274.22947231 342.54843121 274.22947231 342.54843121 273.15870395 342.54879293 C269.61359065 342.54999414 266.06847736 342.55120959 262.52336407 342.55243492 C261.46805368 342.55279515 261.46805368 342.55279515 260.39142388 342.55316265 C237.58150209 342.56105539 214.7716323 342.58448618 191.96173322 342.61699087 C167.84908495 342.65128929 143.73646729 342.67099901 119.6237942 342.67429322 C106.47843116 342.67646027 93.33314455 342.68523751 80.18780422 342.71075439 C68.99393911 342.73243269 57.80016898 342.74052594 46.60628526 342.73078761 C40.89382353 342.7262346 35.18155788 342.72818743 29.46912289 342.74754906 C24.23936428 342.76512179 19.00994567 342.7642308 13.78018375 342.74865177 C11.88846624 342.74626674 9.99672556 342.75064541 8.10504358 342.76248042 C-10.0464613 342.86900595 -10.0464613 342.86900595 -17.08454609 338.25726891 C-17.99204609 337.67976891 -18.89954609 337.10226891 -19.83454609 336.50726891 C-25.04727197 331.29454302 -28.20269733 325.58950323 -28.22156048 318.16837788 C-28.22663502 317.10961946 -28.23170956 316.05086105 -28.23693788 314.96001905 C-28.23743564 313.79273049 -28.23793339 312.62544193 -28.23844624 311.42278099 C-28.24282849 310.18587346 -28.24721074 308.94896592 -28.25172579 307.67457634 C-28.26279699 304.23457069 -28.26934029 300.79461055 -28.27390695 297.35459363 C-28.27986225 293.64684464 -28.29147238 289.93911242 -28.30219746 286.23137474 C-28.32672469 277.27292094 -28.3413499 268.31446159 -28.35425752 259.35598454 C-28.35796948 256.8254788 -28.36194272 254.29497362 -28.36601019 251.76446843 C-28.39124879 236.04930527 -28.41330126 220.33414124 -28.42573833 204.61896229 C-28.42866802 200.97845964 -28.43162969 197.33795703 -28.43464375 193.69745445 C-28.4353898 192.79262717 -28.43613585 191.88779989 -28.4369045 190.9555536 C-28.44955403 176.3028251 -28.48277128 161.65021805 -28.52444558 146.99754631 C-28.56688507 131.95241713 -28.59043577 116.90735009 -28.5956589 101.86216122 C-28.59907094 93.41550266 -28.61080142 84.96903384 -28.64376163 76.52243423 C-28.67179115 69.32760558 -28.68274885 62.13300556 -28.67156617 54.93812656 C-28.66638669 51.26892629 -28.66921912 47.60020458 -28.69403172 43.93107414 C-28.7207457 39.94740382 -28.70843928 35.96438221 -28.6925478 31.98064232 C-28.70642989 30.82896881 -28.72031197 29.6772953 -28.73461473 28.4907226 C-28.65104948 19.97754348 -26.69878682 13.17950581 -20.83845234 6.81976891 C-19.75370625 6.04633141 -19.75370625 6.04633141 -18.64704609 5.25726891 C-17.92646015 4.72101891 -17.20587421 4.18476891 -16.46345234 3.63226891 C-11.11326696 0.53987933 -6.07747318 -0.03380936 0 0 Z M9.91545391 20.25726891 C14.20596087 24.56462862 14.20596087 24.56462862 18.82170391 28.24555016 C19.55453594 28.7785775 20.28736797 29.31160484 21.04240704 29.86078453 C21.8255125 30.42474937 22.60861797 30.98871422 23.41545391 31.56976891 C30.48225855 36.7147541 37.47752971 41.93978298 44.41545391 47.25726891 C51.03455432 52.32425831 57.69049409 57.33162944 64.41545391 62.25726891 C72.04285408 67.84389311 79.57189956 73.55003229 87.07951641 79.29633141 C92.81448118 83.67791216 98.59304954 87.99269848 104.41545391 92.25726891 C112.04285408 97.84389311 119.57189956 103.55003229 127.07951641 109.29633141 C132.81448118 113.67791216 138.59304954 117.99269848 144.41545391 122.25726891 C152.04071984 127.8423299 159.56828646 133.54607979 167.07292461 139.29193687 C173.63518679 144.30682163 180.26741954 149.21753278 186.93815899 154.08685875 C190.95134588 157.02910263 194.91468609 160.01881596 198.82170391 163.10101891 C199.62390362 163.73378746 200.42610332 164.36655602 201.25261211 165.01849937 C202.76683198 166.21924254 204.2761955 167.42614842 205.77946758 168.64056969 C211.64091092 173.29486177 217.63854672 177.52375551 225.29045391 178.19476891 C226.53955547 178.33205406 226.53955547 178.33205406 227.81389141 178.47211266 C237.26909434 177.81715527 243.63555495 173.79031111 250.85295391 167.94476891 C252.7046845 166.48889833 254.55757249 165.03449879 256.41154766 163.58148766 C257.33435528 162.85236168 258.2571629 162.1232357 259.20793438 161.372015 C263.21248158 158.24420726 267.30834122 155.24831366 271.41545391 152.25726891 C278.1418797 147.33365752 284.79603166 142.32374752 291.41545391 137.25726891 C298.80187183 131.60373496 306.24739857 126.04256697 313.75139141 120.54633141 C319.69216824 116.18449858 325.56298652 111.73672342 331.41545391 107.25726891 C338.80187183 101.60373496 346.24739857 96.04256697 353.75139141 90.54633141 C359.69216824 86.18449858 365.56298652 81.73672342 371.41545391 77.25726891 C378.80187183 71.60373496 386.24739857 66.04256697 393.75139141 60.54633141 C400.58216737 55.53104407 407.31857563 50.39727044 414.04436016 45.24237633 C420.88407757 40.01129216 427.80103061 34.89291326 434.78850079 29.86078453 C435.52133282 29.32775719 436.25416485 28.79472984 437.00920391 28.24555016 C437.64535625 27.78704674 438.2815086 27.32854332 438.93693829 26.85614586 C441.4269759 24.84389804 443.65167073 22.52105209 445.91545391 20.25726891 C302.03545391 20.25726891 158.15545391 20.25726891 9.91545391 20.25726891 Z M-8.08454609 34.25726891 C-8.08454609 124.01726891 -8.08454609 213.77726891 -8.08454609 306.25726891 C-4.82143625 302.99415906 -1.94490417 299.99228332 0.91545391 296.44476891 C1.69146954 295.48570641 2.46748516 294.52664391 3.26701641 293.53851891 C3.68886211 293.01515953 4.11070782 292.49180016 4.54533672 291.95258141 C6.02468824 290.12210797 7.51229735 288.29857449 9.00139141 286.47601891 C14.24336987 280.05447734 19.44639967 273.60943314 24.54045391 267.06976891 C28.50415525 261.98371122 32.60535283 257.04093233 36.79753399 252.14227867 C40.51354256 247.78052237 44.05577011 243.30047094 47.57292461 238.77777672 C51.9254364 233.2000394 56.42335048 227.74732863 60.93205547 222.29559898 C64.59873422 217.86073588 68.22622366 213.39940377 71.80607891 208.89398766 C74.03461379 206.10831906 76.28597204 203.342209 78.54020977 200.57733727 C83.83379617 194.08459618 89.079326 187.56024534 94.22526836 180.94965172 C103.42216328 169.15554364 103.42216328 169.15554364 106.91545391 168.25726891 C110.62828339 168.27236171 113.82174444 168.44580704 116.85295391 170.69476891 C119.32251383 174.32647467 119.40310807 176.86838152 118.91545391 181.25726891 C115.564738 188.30201178 109.68836617 194.20336449 104.63420391 200.07758141 C101.71244689 203.47755418 98.91460771 206.96679776 96.13029766 210.47992516 C93.31445611 214.01090106 90.45743175 217.5075101 87.60295391 221.00726891 C83.44280726 226.11094162 79.33572602 231.24964955 75.29045391 236.44476891 C71.32685251 241.53090119 67.22555106 246.47361007 63.03337383 251.37225914 C59.31736526 255.73401544 55.77513771 260.21406687 52.25798321 264.73676109 C47.90547142 270.31449841 43.40755734 275.76720918 38.89885235 281.21893883 C35.23865325 285.64596476 31.61679552 290.09877612 28.04436016 294.59711266 C26.29234271 296.78633079 24.52806255 298.96379669 22.75529766 301.13617516 C22.18496807 301.835411 21.61463848 302.53464684 21.02702618 303.25507164 C19.9051167 304.62934371 18.78199168 306.00262475 17.65739727 307.37470055 C10.89100557 314.30596463 10.89100557 314.30596463 6.91545391 322.25726891 C152.77545391 322.25726891 298.63545391 322.25726891 448.91545391 322.25726891 C446.95106354 318.98328495 445.3317996 316.38527811 442.94670391 313.54242516 C442.38120831 312.86341148 441.8157127 312.18439781 441.23308086 311.48480797 C440.63326397 310.77034508 440.03344707 310.05588219 439.41545391 309.31976891 C434.93894689 303.941715 430.51866687 298.53478145 426.22795391 293.00726891 C422.7231776 288.50030565 419.12765292 284.09494263 415.41545391 279.75726891 C411.22729477 274.86343972 407.21188118 269.86207754 403.25798321 264.77777672 C398.90547142 259.2000394 394.40755734 253.74732863 389.89885235 248.29559898 C386.2321736 243.86073588 382.60468416 239.39940377 379.02482891 234.89398766 C376.24019773 231.41319868 373.41976764 227.96202845 370.60295391 224.50726891 C365.98368532 218.84013224 361.44073986 213.12104008 356.95280743 207.34955406 C353.7562517 203.26334394 350.42472668 199.31355253 347.04045391 195.38226891 C337.21953161 183.86364919 337.21953161 183.86364919 336.47795391 177.50726891 C337.14801205 172.52969415 337.14801205 172.52969415 338.91545391 170.25726891 C341.94868844 168.43732819 343.86107167 168.25629779 347.41545391 168.31976891 C353.65072342 169.98993038 357.45073235 175.90227413 361.54045391 180.69476891 C362.32476788 181.61165489 362.32476788 181.61165489 363.12492657 182.54706383 C367.07892984 187.20181429 370.87757595 191.96155746 374.62224102 196.78534508 C378.36598505 201.59586566 382.21811134 206.31018326 386.10295391 211.00726891 C390.38016332 216.17896479 394.63086775 221.36585064 398.80607891 226.62055016 C401.59071009 230.10133913 404.41114018 233.55250936 407.22795391 237.00726891 C411.3880075 242.11101893 415.49518017 247.24964746 419.54045391 252.44476891 C423.50405531 257.53090119 427.60535676 262.47361007 431.79753399 267.37225914 C435.03944058 271.1775266 438.15884502 275.0616718 441.22795391 279.00726891 C445.54397166 284.55316214 449.95149076 290.01719867 454.41545391 295.44476891 C455.01527081 296.17598961 455.6150877 296.90721031 456.23308086 297.66058922 C456.79857647 298.3460482 457.36407207 299.03150719 457.94670391 299.73773766 C458.44750469 300.34512779 458.94830547 300.95251793 459.46428204 301.57831383 C460.87195146 303.20693809 462.39329259 304.73510758 463.91545391 306.25726891 C463.91545391 216.49726891 463.91545391 126.73726891 463.91545391 34.25726891 C458.16432581 37.49286612 458.16432581 37.49286612 452.96232891 41.21820641 C452.27098858 41.76460777 451.57964825 42.31100914 450.86735821 42.87396812 C449.77741558 43.74432701 449.77741558 43.74432701 448.66545391 44.63226891 C442.39036346 49.57950018 436.05500854 54.4181369 429.60295391 59.13226891 C422.81364828 64.09756108 416.09396836 69.14392582 409.41545391 74.25726891 C402.02913382 79.91092852 394.58350659 85.4719728 387.07951641 90.96820641 C381.13873958 95.33003923 375.26792131 99.77781439 369.41545391 104.25726891 C362.02903599 109.91080285 354.58350925 115.47197085 347.07951641 120.96820641 C341.13873958 125.33003923 335.26792131 129.77781439 329.41545391 134.25726891 C322.02903599 139.91080285 314.58350925 145.47197085 307.07951641 150.96820641 C301.13872933 155.33004675 295.26827574 159.77826574 289.41545391 164.25726891 C244.17769722 198.83142208 244.17769722 198.83142208 218.91545391 197.25726891 C207.87015843 195.58845346 198.64929507 188.29269457 189.91545391 181.75726891 C189.10076641 181.15269859 188.28607891 180.54812828 187.44670391 179.92523766 C181.11964428 175.20923487 174.89012922 170.37362275 168.68034649 165.5048275 C162.61720041 160.76480137 156.44314424 156.19123844 150.23186016 151.64789391 C144.23794213 147.25495724 138.31586047 142.77486085 132.41545391 138.25726891 C125.79607117 133.19064081 119.14042184 128.18291431 112.41545391 123.25726891 C104.78805374 117.6706447 97.25900826 111.96450552 89.75139141 106.21820641 C84.01642664 101.83662565 78.23785828 97.52183933 72.41545391 93.25726891 C64.78805374 87.6706447 57.25900826 81.96450552 49.75139141 76.21820641 C44.01642596 71.83662513 38.23784236 67.52186231 32.41545391 63.25726891 C23.73352443 56.89779453 15.16883237 50.39118132 6.62248516 43.85101891 C5.83309551 43.24902672 5.04370586 42.64703453 4.23039532 42.02680016 C2.68124192 40.84263396 1.13665747 39.65246762 -0.40339375 38.45648766 C-1.11930683 37.90605797 -1.83521992 37.35562828 -2.57282734 36.78851891 C-3.51895893 36.05472008 -3.51895893 36.05472008 -4.48420429 35.30609703 C-6.04443873 34.07455347 -6.04443873 34.07455347 -8.08454609 34.25726891 Z " fill="#DA0808" transform="translate(28.084546089172363,84.74273109436035)"/>
</svg>
